<?xml version="1.0" standalone="no"?>
<!DOCTYPE svg PUBLIC "-//W3C//DTD SVG 20010904//EN"
 "http://www.w3.org/TR/2001/REC-SVG-20010904/DTD/svg10.dtd">
<svg version="1.0" xmlns="http://www.w3.org/2000/svg"
 width="512.000000pt" height="512.000000pt" viewBox="0 0 512.000000 512.000000"
 preserveAspectRatio="xMidYMid meet">
<metadata>
Created by potrace 1.11, written by Peter Selinger 2001-2013
</metadata>
<g transform="translate(0.000000,512.000000) scale(0.100000,-0.100000)"
fill="#000000" stroke="none">
<path d="M2260 4530 c-935 -130 -1710 -829 -2062 -1860 -63 -184 -123 -428
-148 -597 -5 -37 -12 -79 -14 -93 -19 -110 -31 -301 -31 -500 0 -164 3 -205
19 -260 29 -95 91 -186 163 -237 56 -40 167 -91 255 -118 160 -48 422 -91 678
-110 41 -3 98 -8 125 -10 153 -12 392 -22 595 -25 l94 -2 68 -63 c65 -60 168
-128 236 -155 17 -7 33 -15 33 -19 6 -30 4 -51 -5 -52 -6 0 -94 -2 -194 -2
-180 -2 -184 -2 -203 -26 -25 -31 -24 -67 4 -94 21 -21 31 -22 159 -22 76 0
138 -2 138 -4 0 -2 -38 -41 -85 -88 -52 -51 -88 -95 -91 -111 -8 -38 24 -77
65 -80 28 -2 48 14 197 162 l166 163 -4 57 -3 56 35 -5 c46 -8 165 -7 213 0
41 7 40 8 37 -64 l-2 -43 160 -159 c184 -183 215 -199 258 -135 26 40 11 69
-85 164 l-89 87 145 0 c140 0 146 1 164 24 24 30 24 62 0 92 -19 24 -22 24
-210 24 -105 0 -191 2 -192 5 0 3 -2 15 -5 28 -3 19 4 27 53 50 82 39 167 97
227 156 44 44 57 50 96 52 25 1 133 5 240 9 434 14 751 42 1015 90 81 15 238
60 305 88 203 84 295 191 330 382 8 45 5 426 -4 500 -2 17 -7 62 -11 100 -4
39 -9 78 -11 88 -2 10 -8 51 -13 90 -6 40 -13 83 -16 97 -3 14 -8 40 -11 58
-24 147 -107 424 -185 619 -126 319 -320 642 -522 871 -89 101 -264 268 -347
332 -25 19 -47 37 -50 41 -8 9 -191 132 -235 157 -129 73 -298 150 -425 194
-154 52 -275 79 -480 107 -110 15 -404 10 -540 -9z"/>
</g>
</svg>
